<svg xmlns="http://www.w3.org/2000/svg" version="1.1" xmlns:xlink="http://www.w3.org/1999/xlink" xmlns:svgjs="http://svgjs.dev/svgjs" width="100" height="50" viewBox="0 0 1000 623"><g transform="matrix(1,0,0,1,-0.6060433539824999,0.2522267206477409)"><svg viewBox="0 0 396 247" data-background-color="#ffffff" preserveAspectRatio="xMidYMid meet" height="623" width="1000" xmlns="http://www.w3.org/2000/svg" xmlns:xlink="http://www.w3.org/1999/xlink"><defs></defs><g id="tight-bounds" transform="matrix(1,0,0,1,0.2399931681770795,-0.09999999999999432)"><svg viewBox="0 0 395.52 247.2" height="247.2" width="395.52"><g><svg></svg></g><g><svg viewBox="0 0 395.52 247.2" height="247.2" width="395.52"><g><path d="M0.996 3.433h171.666v10.3h-80.683l0 80.829-10.3 0v-80.829h-80.683zM91.979 243.767h-10.3l0-91.129 10.3 0zM375.641 221.244c-12.589 17.304-32.96 25.956-61.113 25.956-28.153 0-48.524-8.652-61.114-25.956-11.146-15.28-17.357-38.148-18.635-68.606h10.289c0.554 13.724 2.077 25.606 4.57 35.646 3.204 12.955 8.011 22.866 14.42 29.733 6.409 6.867 13.619 11.719 21.63 14.557 8.011 2.884 17.624 4.326 28.84 4.326 11.216 0 20.829-1.442 28.84-4.326 8.011-2.838 15.221-7.691 21.63-14.557 6.409-6.867 11.216-16.778 14.42-29.733 2.492-10.041 4.015-21.923 4.569-35.646h10.289c-1.278 30.458-7.49 53.327-18.635 68.606zM253.414 25.887c12.589-17.258 32.96-25.887 61.114-25.887 28.153 0 48.524 8.629 61.113 25.887 11.146 15.32 17.357 38.212 18.635 68.675h-10.289c-0.554-13.733-2.077-25.638-4.569-35.715-3.204-12.909-8.011-22.797-14.42-29.664-6.409-6.867-13.619-11.742-21.63-14.626-8.011-2.838-17.624-4.257-28.84-4.257-11.216 0-20.829 1.419-28.84 4.257-8.011 2.884-15.221 7.759-21.63 14.626-6.409 6.867-11.216 16.755-14.42 29.664-2.493 10.077-4.016 21.982-4.57 35.715l-10.289 0c1.278-30.463 7.489-53.355 18.635-68.675z" fill="#854442" data-fill-palette-color="tertiary"></path></g><g transform="matrix(1,0,0,1,0,101.12232667819525)"><svg viewBox="0 0 395.52 44.95534664360949" height="44.95534664360949" width="395.52"><g><svg viewBox="0 0 395.52 44.95534664360949" height="44.95534664360949" width="395.52"><g><svg viewBox="0 0 395.52 44.95534664360949" height="44.95534664360949" width="395.52"><g><svg viewBox="0 0 395.52 44.95534664360949" height="44.95534664360949" width="395.52"><g><svg viewBox="0 0 395.52 44.95534664360949" height="44.95534664360949" width="395.52"><g><svg viewBox="0 0 395.52 44.95534664360949" height="44.95534664360949" width="395.52"><g transform="matrix(1,0,0,1,0,0)"><svg width="395.52" viewBox="0.75 -35.5 318.0199890136719 36.150001525878906" height="44.95534664360949" data-palette-color="#854442"><path d="M0.75-35L25.75-35 25.75-33.5 14-33.5 14 0 12.5 0 12.5-33.5 0.75-33.5 0.75-35ZM45.85-27.48Q44.15-28 41.65-28 39.15-28 37.45-27.48 35.75-26.95 34.32-25.53 32.9-24.1 32.2-21.38 31.5-18.65 31.5-14.5 31.5-10.35 32.2-7.63 32.9-4.9 34.32-3.48 35.75-2.05 37.45-1.53 39.15-1 41.65-1 44.15-1 45.85-1.53 47.55-2.05 48.97-3.48 50.4-4.9 51.1-7.63 51.8-10.35 51.8-14.5 51.8-18.65 51.1-21.38 50.4-24.1 48.97-25.53 47.55-26.95 45.85-27.48ZM50.6-3.05Q47.9 0.5 41.65 0.5 35.4 0.5 32.7-3.05 30-6.6 30-14.5 30-22.4 32.7-25.95 35.4-29.5 41.65-29.5 47.9-29.5 50.6-25.95 53.3-22.4 53.3-14.5 53.3-6.6 50.6-3.05ZM81.09-29L82.7-29 70.2 0.5 57.7-29 59.3-29 70.2-3.35 81.09-29ZM90.99 0L90.99-1.5 107.29-1.5 97.04-25.65 86.14 0 84.54 0 97.04-29.5 109.54 0 90.99 0ZM149.64-3.28Q146.89 0.5 140.74 0.5 134.59 0.5 131.84-3.28 129.09-7.05 129.09-15.05L129.09-15.05 129.09-19.95Q129.09-27.95 131.84-31.73 134.59-35.5 140.74-35.5 146.89-35.5 149.64-31.73 152.39-27.95 152.39-19.95L152.39-19.95 152.39-15.05Q152.39-7.05 149.64-3.28ZM144.94-33.38Q143.19-34 140.74-34 138.29-34 136.54-33.38 134.79-32.75 133.39-31.25 131.99-29.75 131.29-26.93 130.59-24.1 130.59-19.95L130.59-19.95 130.59-15.05Q130.59-10.9 131.29-8.08 131.99-5.25 133.39-3.75 134.79-2.25 136.54-1.63 138.29-1 140.74-1 143.19-1 144.94-1.63 146.69-2.25 148.09-3.75 149.49-5.25 150.19-8.08 150.89-10.9 150.89-15.05L150.89-15.05 150.89-19.95Q150.89-24.1 150.19-26.93 149.49-29.75 148.09-31.25 146.69-32.75 144.94-33.38ZM168.64-29.6L168.64-29.6Q174.84-29.6 177.44-26.85L177.44-26.85 176.44-25.75Q174.04-28.1 168.84-28.1L168.84-28.1Q161.04-28.1 161.04-21.9L161.04-21.9Q161.04-19.5 162.94-18.07 164.84-16.65 167.56-15.9 170.29-15.15 173.01-14.33 175.74-13.5 177.64-11.68 179.54-9.85 179.54-6.9L179.54-6.9Q179.54-3.45 176.69-1.4 173.84 0.65 168.44 0.65L168.44 0.65Q165.79 0.65 163.21-0.05 160.64-0.75 159.39-2.1L159.39-2.1 160.39-3.2Q162.94-0.85 168.24-0.85L168.24-0.85Q173.09-0.85 175.56-2.65 178.04-4.45 178.04-6.85L178.04-6.85Q178.04-9.35 176.14-10.9 174.24-12.45 171.51-13.23 168.79-14 166.06-14.83 163.34-15.65 161.44-17.4 159.54-19.15 159.54-22L159.54-22Q159.54-25.85 162.11-27.73 164.69-29.6 168.64-29.6ZM194.03 0L194.03 0 186.83 0 186.83-29 192.33-29Q198.23-29 201.26-26.95 204.28-24.9 204.28-21.35L204.28-21.35Q204.28-17.1 200.53-15.2L200.53-15.2Q203.28-14.25 204.63-12.38 205.98-10.5 205.98-8.05L205.98-8.05Q205.98-4.45 203.01-2.23 200.03 0 194.03 0ZM188.33-1.5L194.03-1.5Q198.43-1.5 201.46-3.1 204.48-4.7 204.48-8.05L204.48-8.05Q204.48-9.6 203.33-11.43 202.18-13.25 199.78-14.1L199.78-14.1 197.18-15 199.58-16.25Q200.83-16.9 201.81-18.23 202.78-19.55 202.78-21.35L202.78-21.35Q202.78-24.5 199.78-26 196.78-27.5 192.33-27.5L192.33-27.5 188.33-27.5 188.33-1.5ZM228.23-27.48Q226.53-28 224.03-28 221.53-28 219.83-27.48 218.13-26.95 216.71-25.53 215.28-24.1 214.58-21.38 213.88-18.65 213.88-14.5 213.88-10.35 214.58-7.63 215.28-4.9 216.71-3.48 218.13-2.05 219.83-1.53 221.53-1 224.03-1 226.53-1 228.23-1.53 229.93-2.05 231.36-3.48 232.78-4.9 233.48-7.63 234.18-10.35 234.18-14.5 234.18-18.65 233.48-21.38 232.78-24.1 231.36-25.53 229.93-26.95 228.23-27.48ZM232.98-3.05Q230.28 0.5 224.03 0.5 217.78 0.5 215.08-3.05 212.38-6.6 212.38-14.5 212.38-22.4 215.08-25.95 217.78-29.5 224.03-29.5 230.28-29.5 232.98-25.95 235.68-22.4 235.68-14.5 235.68-6.6 232.98-3.05ZM256.13-14.55L256.13-14.55 262.93 0 261.28 0 254.28-15Q254.38-15.05 255.15-15.43 255.93-15.8 256.23-15.98 256.53-16.15 257.23-16.6 257.93-17.05 258.28-17.48 258.63-17.9 259.05-18.48 259.48-19.05 259.68-19.78 259.88-20.5 259.88-21.35L259.88-21.35Q259.88-24.5 256.88-26 253.88-27.5 249.43-27.5L249.43-27.5 245.43-27.5 245.43 0 243.93 0 243.93-29 249.43-29Q255.33-29 258.35-26.95 261.38-24.9 261.38-21.35L261.38-21.35Q261.38-19.05 259.83-17.28 258.28-15.5 256.13-14.55ZM271.23 0L269.73 0 269.73-29 271.23-29 287.53-2.75 287.53-29 289.03-29 289.03 0 287.53 0 271.23-26.3 271.23 0ZM316.82-3.95L317.92-2.95Q315.17 0.5 308.92 0.5 302.67 0.5 299.97-3.05 297.27-6.6 297.27-14.5 297.27-22.4 299.97-25.95 302.67-29.5 308.92-29.5L308.92-29.5Q316.17-29.5 318.77-24.75L318.77-24.75 306.52-14.5 304.17-14.5 316.82-25.05Q314.62-28 308.92-28L308.92-28Q306.42-28 304.72-27.48 303.02-26.95 301.6-25.53 300.17-24.1 299.47-21.38 298.77-18.65 298.77-14.5 298.77-10.35 299.47-7.63 300.17-4.9 301.6-3.48 303.02-2.05 304.72-1.53 306.42-1 308.92-1L308.92-1Q314.62-1 316.82-3.95L316.82-3.95Z" opacity="1" transform="matrix(1,0,0,1,0,0)" fill="#3c2f2f" class="undefined-text-0" data-fill-palette-color="primary" id="text-0"></path></svg></g></svg></g></svg></g></svg></g></svg></g></svg></g></svg></g></svg></g></svg><rect width="395.52" height="247.2" fill="none" stroke="none" visibility="hidden"></rect></g></svg></g></svg>
